<svg id="visual" viewBox="0 0 1440 800" width="1440" height="800" xmlns="http://www.w3.org/2000/svg" xmlns:xlink="http://www.w3.org/1999/xlink" version="1.1"><rect x="0" y="0" width="1440" height="800" fill="#005F8C"></rect><path d="M0 392L40 387.2C80 382.3 160 372.7 240 379.5C320 386.3 400 409.7 480 414.8C560 420 640 407 720 406.5C800 406 880 418 960 424.5C1040 431 1120 432 1200 422.5C1280 413 1360 393 1400 383L1440 373L1440 801L1400 801C1360 801 1280 801 1200 801C1120 801 1040 801 960 801C880 801 800 801 720 801C640 801 560 801 480 801C400 801 320 801 240 801C160 801 80 801 40 801L0 801Z" fill="#002B59" stroke-linecap="round" stroke-linejoin="miter"></path></svg>