<svg id="visual" viewBox="0 0 1440 480" width="1440" height="480" xmlns="http://www.w3.org/2000/svg" xmlns:xlink="http://www.w3.org/1999/xlink" version="1.1"><rect x="0" y="0" width="1440" height="480" fill="#005F8C"></rect><path d="M0 375L48 380.5C96 386 192 397 288 396.5C384 396 480 384 576 378.7C672 373.3 768 374.7 864 376.7C960 378.7 1056 381.3 1152 388.3C1248 395.3 1344 406.7 1392 412.3L1440 418L1440 481L1392 481C1344 481 1248 481 1152 481C1056 481 960 481 864 481C768 481 672 481 576 481C480 481 384 481 288 481C192 481 96 481 48 481L0 481Z" fill="#002B59" stroke-linecap="round" stroke-linejoin="miter"></path></svg>